<?xml version="1.0" encoding="UTF-8"?>
<svg xmlns="http://www.w3.org/2000/svg" version="1.1" viewBox="0 0 385.5 142.3">
  <defs>
    <style>
      .cls-1 {
        fill: #50504f;
      }
    </style>
  </defs>
  <!-- Generator: Adobe Illustrator 28.7.3, SVG Export Plug-In . SVG Version: 1.2.0 Build 164)  -->
  <g>
    <g id="Calque_2">
      <g>
        <path class="cls-1" d="M45.7,25.2h6.9v20.6c0,8.9-5.2,14.2-13.7,14.2s-13.7-5.3-13.7-14.2v-20.6h6.9v21.2c0,4.5,2.6,7.2,6.9,7.2s6.8-2.7,6.8-7.2v-21.2Z"/>
        <path class="cls-1" d="M61.6,25.2h8.8l15.1,24.5v-24.5h6.9v33.9h-8.8l-15.1-24.5v24.5h-6.9V25.2Z"/>
        <path class="cls-1" d="M102.4,25.2h6.9v33.9h-6.9V25.2Z"/>
        <path class="cls-1" d="M122.3,25.2l10,26.5,10-26.5h7.3l-12.8,33.9h-9l-12.8-33.9h7.3Z"/>
        <path class="cls-1" d="M155.3,25.2h19.7v5.7h-12.9v8h10.9v5.7h-10.9v8.7h12.9v5.7h-19.7V25.2Z"/>
        <path class="cls-1" d="M183.5,25.2h10.4c7.5,0,12,3.8,12,10.1s-2,7.2-5.5,8.8l10.6,15h-8.1l-9-13.7h-3.5v13.7h-6.9V25.2ZM190.4,30.9v8.8h3.9c2.9,0,4.6-1.7,4.6-4.5s-1.7-4.3-4.6-4.3h-3.9Z"/>
        <path class="cls-1" d="M217.7,49.7c2,2.6,4.7,4.2,7.5,4.2s4.4-1.5,4.4-3.9c0-6.2-15.4-4.5-15.4-16s4.5-9.8,10.9-9.8,9,2.3,11.9,5.7l-5,4.5c-2-2.6-4.2-4.3-6.8-4.3s-4,1.5-4,3.6c0,6.1,15.4,4.4,15.4,16,0,6.4-5,10.2-11.3,10.2s-9.5-2.1-12.5-5.7l5-4.6Z"/>
        <path class="cls-1" d="M244.3,25.2h6.9v33.9h-6.9V25.2Z"/>
        <path class="cls-1" d="M257.6,25.2h27.8v6.2h-10.5v27.6h-6.9v-27.6h-10.5v-6.2Z"/>
        <path class="cls-1" d="M291.9,25.2h19.7v5.7h-12.9v8h10.9v5.7h-10.9v8.7h12.9v5.7h-19.7V25.2ZM298.6,22.2l5.5-6.5h7.1l-6.3,6.5h-6.2Z"/>
        <path class="cls-1" d="M26.1,83.2h13.3c10.7,0,18,7.8,18,16.9s-7.3,16.9-18,16.9h-13.3v-33.9ZM33,89.5v21.4h6.5c6.3,0,10.8-4.7,10.8-10.7s-4.5-10.7-10.8-10.7h-6.5Z"/>
        <path class="cls-1" d="M64.5,83.2h19.7v5.7h-12.9v8h10.9v5.7h-10.9v8.7h12.9v5.7h-19.7v-33.9Z"/>
        <path class="cls-1" d="M102.3,83.2h27.8v6.2h-10.5v27.6h-6.9v-27.6h-10.5v-6.2Z"/>
        <path class="cls-1" d="M168.1,100.2c0,9.7-7.3,17.9-18,17.9s-18-8.2-18-17.9,7.3-17.9,18-17.9,18,8.2,18,17.9ZM161.1,100.2c0-6.5-4.5-11.5-10.9-11.5s-10.9,5-10.9,11.5,4.5,11.5,10.9,11.5,10.9-5,10.9-11.5Z"/>
        <path class="cls-1" d="M195.2,83.2h6.9v20.6c0,8.9-5.2,14.2-13.7,14.2s-13.7-5.3-13.7-14.2v-20.6h6.9v21.2c0,4.5,2.6,7.2,6.9,7.2s6.8-2.7,6.8-7.2v-21.2Z"/>
        <path class="cls-1" d="M211.1,83.2h6.9v27.6h12.9v6.2h-19.7v-33.9Z"/>
        <path class="cls-1" d="M269.2,100.2c0,9.7-7.3,17.9-18,17.9s-18-8.2-18-17.9,7.3-17.9,18-17.9,18,8.2,18,17.9ZM262.1,100.2c0-6.5-4.5-11.5-10.9-11.5s-10.9,5-10.9,11.5,4.5,11.5,10.9,11.5,10.9-5,10.9-11.5Z"/>
        <path class="cls-1" d="M296.2,83.2h6.9v20.6c0,8.9-5.2,14.2-13.7,14.2s-13.7-5.3-13.7-14.2v-20.6h6.9v21.2c0,4.5,2.6,7.2,6.9,7.2s6.8-2.7,6.8-7.2v-21.2Z"/>
        <path class="cls-1" d="M314,107.8c2,2.6,4.7,4.2,7.5,4.2s4.4-1.5,4.4-3.9c0-6.2-15.4-4.5-15.4-16s4.5-9.8,10.9-9.8,9,2.3,11.9,5.7l-5,4.5c-2-2.6-4.2-4.3-6.8-4.3s-4,1.5-4,3.6c0,6.1,15.4,4.4,15.4,16,0,6.4-5,10.2-11.3,10.2s-9.5-2.1-12.5-5.7l5-4.6Z"/>
        <path class="cls-1" d="M340.6,83.2h19.7v5.7h-12.9v8h10.9v5.7h-10.9v8.7h12.9v5.7h-19.7v-33.9Z"/>
      </g>
    </g>
  </g>
</svg>