<svg width="180" height="110" viewBox="0 0 180 110" fill="none" xmlns="http://www.w3.org/2000/svg">
<rect width="180" height="110" fill="white"/>
<g clip-path="url(#clip0_2017_224)">
<path d="M17.8591 26.9116C15.0022 26.9116 12.885 26.1734 11.5075 24.6969C10.147 23.2035 9.4668 20.8869 9.4668 17.7472C9.4668 14.7094 10.181 12.4437 11.6095 10.9502C13.038 9.43979 15.1637 8.68457 17.9867 8.68457C18.5309 8.68457 19.0921 8.72699 19.6702 8.81185C20.2655 8.87974 20.8267 8.99005 21.3538 9.14279C21.881 9.27856 22.3147 9.44828 22.6548 9.65193C22.8588 9.77073 23.0204 9.89801 23.1395 10.0338C23.2585 10.1696 23.318 10.3138 23.318 10.4665C23.318 10.6363 23.2755 10.8569 23.1905 11.1284C23.1225 11.383 23.0289 11.6376 22.9099 11.8921C22.7908 12.1467 22.6548 12.3588 22.5017 12.5285C22.3487 12.6983 22.1956 12.7831 22.0426 12.7831C21.8385 12.7831 21.5494 12.7237 21.1753 12.6049C20.8012 12.4692 20.342 12.3419 19.7978 12.2231C19.2707 12.1043 18.6414 12.0449 17.9102 12.0449C16.9068 12.0449 16.0736 12.257 15.4103 12.6813C14.7641 13.1056 14.2794 13.742 13.9563 14.5905C13.6502 15.4391 13.4972 16.4998 13.4972 17.7726C13.4972 19.0455 13.6587 20.1147 13.9818 20.9802C14.3049 21.8288 14.7896 22.4736 15.4358 22.9149C16.0821 23.3562 16.8898 23.5768 17.8591 23.5768C18.4714 23.5768 19.024 23.5259 19.5172 23.4241C20.0104 23.3222 20.444 23.2035 20.8181 23.0677C21.1923 22.9319 21.5069 22.8131 21.762 22.7113C22.0171 22.6095 22.2042 22.5585 22.3232 22.5585C22.5272 22.5585 22.7058 22.6518 22.8588 22.8386C23.0119 23.0253 23.1395 23.2459 23.2415 23.5004C23.3435 23.755 23.42 24.0096 23.4711 24.2641C23.5221 24.5018 23.5476 24.6714 23.5476 24.7733C23.5476 25.0618 23.4796 25.2739 23.3435 25.4097C23.2075 25.5455 22.9439 25.7237 22.5527 25.9443C22.1446 26.1649 21.6599 26.3516 21.0988 26.5043C20.5545 26.6401 19.9934 26.742 19.4152 26.8098C18.854 26.8777 18.3353 26.9116 17.8591 26.9116Z" fill="#656565"/>
<path d="M27.1478 26.7588C26.6036 26.7588 26.204 26.6909 25.9489 26.5551C25.7108 26.4024 25.5918 26.1902 25.5918 25.9187V8.3535C25.5918 8.08196 25.7108 7.87831 25.9489 7.74254C26.204 7.5898 26.6036 7.51343 27.1478 7.51343H27.811C28.3553 7.51343 28.7463 7.5898 28.9844 7.74254C29.2395 7.87831 29.3671 8.08196 29.3671 8.3535V14.9977C29.6052 14.6922 29.9027 14.4037 30.2599 14.1322C30.634 13.8607 31.0506 13.64 31.5098 13.4703C31.9859 13.2836 32.4961 13.1903 33.0403 13.1903C33.9076 13.1903 34.6219 13.343 35.1831 13.6485C35.7612 13.937 36.1864 14.3867 36.4585 14.9977C36.7306 15.5917 36.8666 16.3639 36.8666 17.3143V25.9187C36.8666 26.1902 36.7391 26.4024 36.484 26.5551C36.2459 26.6909 35.8548 26.7588 35.3106 26.7588H34.5964C34.0521 26.7588 33.6525 26.6909 33.3975 26.5551C33.1593 26.4024 33.0403 26.1902 33.0403 25.9187V17.8744C33.0403 17.3822 32.9298 17.0003 32.7087 16.7288C32.4877 16.4403 32.105 16.296 31.5608 16.296C31.2888 16.296 31.0082 16.3639 30.719 16.4997C30.447 16.6185 30.1919 16.7882 29.9538 17.0088C29.7327 17.2294 29.5542 17.484 29.4181 17.7725V25.9187C29.4181 26.1902 29.2906 26.4024 29.0355 26.5551C28.7974 26.6909 28.4063 26.7588 27.8621 26.7588H27.1478Z" fill="#656565"/>
<path d="M46.2647 26.9116C43.9518 26.9116 42.2598 26.3007 41.1885 25.0788C40.1341 23.8399 39.6068 22.1936 39.6068 20.1402C39.6068 18.46 39.8704 17.1108 40.3977 16.0925C40.9248 15.0742 41.656 14.336 42.5913 13.8778C43.5267 13.4195 44.5981 13.1904 45.8055 13.1904C47.149 13.1904 48.2203 13.4959 49.0196 14.1069C49.8188 14.7009 50.3971 15.4901 50.7542 16.4743C51.1283 17.4417 51.3154 18.4939 51.3154 19.631C51.3154 19.8516 51.2304 20.0892 51.0602 20.3438C50.9071 20.5984 50.7201 20.819 50.4991 21.0057C50.278 21.1754 50.0739 21.2603 49.8868 21.2603H43.4842C43.5182 22.2785 43.8073 22.9828 44.3515 23.3732C44.9126 23.7465 45.6099 23.9332 46.4432 23.9332C47.0214 23.9332 47.5316 23.8568 47.9738 23.7041C48.4329 23.5344 48.8155 23.3732 49.1216 23.2204C49.4447 23.0677 49.6913 22.9913 49.8614 22.9913C50.0314 22.9913 50.2015 23.1186 50.3716 23.3732C50.5416 23.6277 50.6861 23.9163 50.8051 24.2387C50.9242 24.5442 50.9838 24.7818 50.9838 24.9515C50.9838 25.206 50.8136 25.4521 50.4735 25.6897C50.1504 25.9274 49.7338 26.1394 49.2237 26.3261C48.7135 26.5129 48.1948 26.6571 47.6676 26.7589C47.1404 26.8607 46.6728 26.9116 46.2647 26.9116ZM43.4331 18.74H47.7186C47.7186 17.8915 47.5485 17.255 47.2084 16.8307C46.8683 16.3895 46.3497 16.1689 45.6524 16.1689C45.3463 16.1689 45.0232 16.2283 44.683 16.3471C44.343 16.4658 44.0539 16.712 43.8158 17.0853C43.5777 17.4417 43.4502 17.9933 43.4331 18.74Z" fill="#656565"/>
<path d="M59.4094 26.9116C57.1643 26.9116 55.5489 26.3516 54.5626 25.2315C53.5933 24.1114 53.1085 22.4143 53.1085 20.1402C53.1085 17.866 53.6272 16.1434 54.6646 14.9724C55.719 13.7845 57.3855 13.1904 59.6644 13.1904C60.1236 13.1904 60.5995 13.2413 61.0929 13.3432C61.5859 13.4281 62.0451 13.5553 62.47 13.725C62.8955 13.8947 63.2357 14.0814 63.4907 14.2851C63.7629 14.4887 63.8985 14.7094 63.8985 14.9469C63.8985 15.0997 63.8393 15.3373 63.7203 15.6597C63.6009 15.9652 63.4565 16.2538 63.2866 16.5253C63.1162 16.7798 62.9464 16.9071 62.7765 16.9071C62.6061 16.9071 62.3853 16.8477 62.1132 16.7289C61.841 16.5931 61.5012 16.4658 61.0929 16.3471C60.6846 16.2283 60.1917 16.1689 59.613 16.1689C58.678 16.1689 58.0063 16.4743 57.598 17.0853C57.1897 17.6963 56.9861 18.6806 56.9861 20.0383C56.9861 21.413 57.1897 22.4058 57.598 23.0168C58.0063 23.6277 58.678 23.9332 59.613 23.9332C60.2083 23.9332 60.7272 23.8654 61.1693 23.7296C61.6114 23.5768 61.9854 23.4326 62.2918 23.2968C62.5978 23.1441 62.8357 23.0677 63.0061 23.0677C63.176 23.0677 63.3292 23.195 63.4653 23.4495C63.618 23.7041 63.737 23.9926 63.8222 24.3151C63.924 24.6205 63.9754 24.8582 63.9754 25.0279C63.9754 25.2824 63.8222 25.52 63.5162 25.7406C63.2269 25.9612 62.8445 26.1649 62.3682 26.3516C61.909 26.5213 61.416 26.6571 60.8888 26.7589C60.3615 26.8607 59.8686 26.9116 59.4094 26.9116Z" fill="#656565"/>
<path d="M67.4536 26.7588C66.9092 26.7588 66.5098 26.6909 66.2547 26.5551C66.0163 26.4024 65.8973 26.1902 65.8973 25.9187V8.3535C65.8973 8.08196 66.0163 7.87831 66.2547 7.74254C66.5098 7.5898 66.9092 7.51343 67.4536 7.51343H68.1679C68.7118 7.51343 69.1029 7.5898 69.3413 7.74254C69.5964 7.87831 69.7237 8.08196 69.7237 8.3535V18.409H69.8515L72.8103 13.9285C72.9121 13.7588 73.0316 13.64 73.1672 13.5721C73.3033 13.4873 73.482 13.4279 73.7032 13.3939C73.9412 13.36 74.2643 13.343 74.6726 13.343H75.4886C75.9478 13.343 76.2881 13.3685 76.5089 13.4194C76.7473 13.4534 76.8662 13.5637 76.8662 13.7503C76.8662 13.8352 76.832 13.9455 76.7639 14.0813C76.6964 14.2171 76.5941 14.3783 76.458 14.5649L72.8103 19.7582V18.6126L77.0449 25.6641C77.1296 25.7999 77.1977 25.9272 77.2486 26.046C77.3 26.1478 77.3254 26.2411 77.3254 26.326C77.3254 26.5127 77.1977 26.6315 76.9426 26.6824C76.7047 26.7333 76.3645 26.7588 75.9224 26.7588H75.1063C74.4767 26.7588 74.0175 26.7078 73.7287 26.606C73.4394 26.4872 73.2015 26.2666 73.0144 25.9441L69.8515 20.4455H69.7237V25.9187C69.7237 26.1902 69.5964 26.4024 69.3413 26.5551C69.1029 26.6909 68.7118 26.7588 68.1679 26.7588H67.4536Z" fill="#656565"/>
<path d="M116.858 102.487C116.007 102.487 115.242 102.419 114.562 102.283C113.899 102.164 113.329 102.003 112.853 101.799C112.377 101.596 111.986 101.401 111.68 101.214C111.441 101.061 111.246 100.917 111.093 100.781C110.94 100.628 110.863 100.45 110.863 100.246C110.863 100.043 110.889 99.8136 110.94 99.559C111.008 99.2878 111.093 99.0244 111.195 98.7699C111.314 98.5153 111.433 98.3028 111.552 98.1334C111.689 97.9636 111.824 97.8789 111.96 97.8789C112.113 97.8789 112.411 97.989 112.853 98.2098C113.312 98.4135 113.848 98.6254 114.46 98.8462C115.089 99.0499 115.744 99.1517 116.424 99.1517C116.918 99.1517 117.317 99.092 117.623 98.9735C117.946 98.8545 118.185 98.668 118.337 98.4135C118.507 98.1589 118.592 97.8363 118.592 97.4461C118.592 97.0388 118.474 96.699 118.235 96.4278C118.015 96.1561 117.717 95.9187 117.343 95.715C116.968 95.4943 116.543 95.2989 116.067 95.1295C115.608 94.9425 115.14 94.7389 114.664 94.5186C114.222 94.3149 113.797 94.077 113.389 93.8058C112.981 93.5341 112.607 93.2032 112.266 92.813C111.944 92.4223 111.688 91.9475 111.501 91.3874C111.314 90.8274 111.221 90.1655 111.221 89.4018C111.221 88.4853 111.391 87.7045 111.731 87.0598C112.088 86.3979 112.556 85.8633 113.134 85.456C113.711 85.0487 114.358 84.7515 115.072 84.565C115.787 84.3613 116.518 84.2595 117.266 84.2595C117.811 84.2595 118.337 84.3016 118.847 84.3868C119.375 84.4715 119.851 84.5905 120.276 84.7432C120.701 84.8788 121.042 85.0399 121.297 85.2269C121.484 85.3453 121.637 85.4726 121.756 85.6087C121.874 85.7443 121.934 85.8799 121.934 86.016C121.934 86.1854 121.9 86.4062 121.832 86.6779C121.781 86.9325 121.704 87.187 121.603 87.4416C121.517 87.6962 121.407 87.9081 121.271 88.078C121.135 88.2474 120.99 88.3326 120.837 88.3326C120.633 88.3326 120.362 88.2729 120.021 88.1544C119.698 88.0183 119.307 87.891 118.847 87.7725C118.405 87.6365 117.904 87.5689 117.343 87.5689C116.867 87.5689 116.467 87.6281 116.144 87.7471C115.821 87.8656 115.574 88.0438 115.404 88.2817C115.251 88.502 115.174 88.7908 115.174 89.1472C115.174 89.5712 115.302 89.9276 115.557 90.2164C115.812 90.4876 116.152 90.7255 116.577 90.9292C117.02 91.1157 117.487 91.3194 117.98 91.5401C118.507 91.7604 119.043 92.0067 119.587 92.2784C120.132 92.5496 120.633 92.8893 121.092 93.2967C121.552 93.6868 121.917 94.1876 122.189 94.7986C122.478 95.3924 122.623 96.139 122.623 97.0388C122.623 98.0399 122.453 98.8883 122.113 99.5845C121.79 100.281 121.348 100.841 120.786 101.265C120.225 101.689 119.604 102.003 118.924 102.207C118.244 102.394 117.555 102.487 116.858 102.487Z" fill="#656565"/>
<path d="M126.143 102.334C125.599 102.334 125.199 102.266 124.944 102.13C124.706 101.977 124.587 101.765 124.587 101.494V93.3985C124.587 92.6514 124.561 92.0581 124.51 91.6165C124.476 91.1583 124.434 90.8019 124.383 90.5474C124.348 90.2928 124.332 90.0725 124.332 89.8855C124.332 89.6985 124.451 89.5457 124.689 89.4273C124.944 89.3088 125.241 89.2236 125.582 89.1727C125.939 89.1051 126.27 89.0621 126.577 89.0454C126.899 89.0111 127.129 88.9945 127.265 88.9945C127.469 88.9945 127.623 89.0454 127.724 89.1472C127.827 89.2324 127.912 89.393 127.979 89.6309C128.065 89.8688 128.149 90.2252 128.234 90.7001C128.473 90.378 128.779 90.0725 129.153 89.7837C129.545 89.4782 129.978 89.2324 130.454 89.0454C130.948 88.8584 131.466 88.7654 132.01 88.7654C132.639 88.7654 133.192 88.8506 133.668 89.02C134.162 89.1727 134.561 89.4106 134.867 89.7327C135.19 90.0382 135.419 90.4289 135.556 90.9037C135.777 90.5473 136.075 90.2076 136.449 89.8855C136.84 89.5633 137.29 89.3 137.8 89.0963C138.31 88.876 138.855 88.7654 139.433 88.7654C140.317 88.7654 141.04 88.9181 141.601 89.2236C142.179 89.5124 142.605 89.9618 142.877 90.5728C143.166 91.1671 143.31 91.9387 143.31 92.8894V101.494C143.31 101.765 143.183 101.977 142.928 102.13C142.69 102.266 142.299 102.334 141.754 102.334H141.04C140.496 102.334 140.096 102.266 139.841 102.13C139.603 101.977 139.484 101.765 139.484 101.494V93.4494C139.484 92.9569 139.365 92.5751 139.127 92.3039C138.906 92.015 138.515 91.8711 137.954 91.8711C137.749 91.8711 137.536 91.9132 137.316 91.9984C137.112 92.0659 136.908 92.1766 136.704 92.3293C136.5 92.4821 136.295 92.6769 136.091 92.9148C135.904 93.1351 135.734 93.3985 135.581 93.704L135.607 91.642C135.692 91.8623 135.751 92.0748 135.785 92.2784C135.836 92.4821 135.862 92.6945 135.862 92.9148V101.494C135.862 101.765 135.734 101.977 135.479 102.13C135.241 102.266 134.85 102.334 134.306 102.334H133.592C133.047 102.334 132.648 102.266 132.393 102.13C132.154 101.977 132.035 101.765 132.035 101.494V93.4494C132.035 92.9569 131.917 92.5751 131.678 92.3039C131.458 92.015 131.066 91.8711 130.505 91.8711C130.233 91.8711 129.961 91.9387 129.689 92.0748C129.417 92.1932 129.17 92.3636 128.949 92.5839C128.728 92.8042 128.55 93.0588 128.413 93.3476V101.494C128.413 101.765 128.286 101.977 128.031 102.13C127.792 102.266 127.402 102.334 126.857 102.334H126.143Z" fill="#656565"/>
<path d="M147.766 102.333C147.221 102.333 146.822 102.266 146.567 102.13C146.328 101.977 146.209 101.764 146.209 101.493V89.7577C146.209 89.4865 146.328 89.2829 146.567 89.1468C146.822 88.994 147.221 88.9177 147.766 88.9177H148.48C149.024 88.9177 149.415 88.994 149.653 89.1468C149.908 89.2829 150.036 89.4865 150.036 89.7577V101.493C150.036 101.764 149.908 101.977 149.653 102.13C149.415 102.266 149.024 102.333 148.48 102.333H147.766ZM148.123 87.6703C147.46 87.6703 146.975 87.6027 146.669 87.4666C146.379 87.3305 146.235 87.1269 146.235 86.8557V84.87C146.235 84.5983 146.379 84.3947 146.669 84.2591C146.975 84.1235 147.46 84.0554 148.123 84.0554C148.786 84.0554 149.262 84.1235 149.551 84.2591C149.858 84.3947 150.01 84.5983 150.01 84.87V86.8557C150.01 87.1269 149.858 87.3305 149.551 87.4666C149.262 87.6027 148.786 87.6703 148.123 87.6703Z" fill="#656565"/>
<path d="M156.787 102.486C155.971 102.486 155.282 102.342 154.721 102.053C154.176 101.764 153.768 101.34 153.496 100.78C153.224 100.204 153.088 99.4988 153.088 98.6675V83.9281C153.088 83.6569 153.207 83.4532 153.446 83.3171C153.701 83.1644 154.1 83.088 154.644 83.088H155.359C155.902 83.088 156.294 83.1644 156.532 83.3171C156.787 83.4532 156.914 83.6569 156.914 83.9281V98.413C156.914 98.786 156.973 99.0582 157.093 99.2276C157.229 99.3803 157.458 99.4567 157.782 99.4567C158.07 99.4567 158.292 99.4224 158.445 99.3549C158.615 99.2697 158.759 99.2276 158.879 99.2276C158.981 99.2276 159.074 99.3128 159.159 99.4821C159.244 99.6515 159.312 99.864 159.363 100.119C159.431 100.356 159.482 100.593 159.516 100.831C159.55 101.052 159.567 101.222 159.567 101.34C159.567 101.544 159.422 101.739 159.134 101.926C158.844 102.095 158.487 102.231 158.062 102.333C157.637 102.435 157.212 102.486 156.787 102.486Z" fill="#656565"/>
<path d="M166.534 102.487C164.221 102.487 162.529 101.876 161.457 100.654C160.403 99.4151 159.876 97.7682 159.876 95.7151C159.876 94.0349 160.14 92.6857 160.666 91.6674C161.194 90.6492 161.925 89.9109 162.86 89.4527C163.796 88.9945 164.868 88.7654 166.074 88.7654C167.418 88.7654 168.49 89.0709 169.288 89.6818C170.088 90.2761 170.666 91.0653 171.023 92.0493C171.398 93.0166 171.584 94.0692 171.584 95.2059C171.584 95.4262 171.5 95.6642 171.329 95.9187C171.176 96.1733 170.99 96.3936 170.768 96.5806C170.547 96.75 170.343 96.8352 170.156 96.8352H163.753C163.787 97.8534 164.077 98.5574 164.62 98.9481C165.181 99.3211 165.879 99.5081 166.712 99.5081C167.291 99.5081 167.801 99.4317 168.243 99.279C168.702 99.1096 169.084 98.9481 169.391 98.7953C169.714 98.6426 169.961 98.5662 170.13 98.5662C170.301 98.5662 170.471 98.6935 170.64 98.9481C170.811 99.2026 170.955 99.4915 171.074 99.8136C171.194 100.119 171.252 100.357 171.252 100.526C171.252 100.781 171.083 101.027 170.742 101.265C170.42 101.503 170.003 101.714 169.492 101.901C168.982 102.088 168.464 102.232 167.937 102.334C167.409 102.436 166.941 102.487 166.534 102.487ZM163.702 94.3149H167.988C167.988 93.4661 167.818 92.8296 167.477 92.4057C167.138 91.9641 166.619 91.7438 165.921 91.7438C165.615 91.7438 165.292 91.8035 164.952 91.922C164.612 92.0405 164.323 92.2872 164.084 92.6603C163.847 93.0166 163.72 93.5679 163.702 94.3149Z" fill="#656565"/>
<path d="M25.0908 78.5441C23.7729 78.5441 22.7951 78.3742 22.1573 78.0349C21.5621 77.6952 21.2645 77.186 21.2645 76.5075V57.0331L8.57395 36.6039C8.40389 36.2644 8.27634 35.9887 8.19132 35.7765C8.06377 35.522 8 35.3098 8 35.1401C8 34.631 8.31886 34.2703 8.95658 34.0582C9.6368 33.846 10.6572 33.74 12.0176 33.74H14.7598C15.9927 33.74 16.8856 33.8673 17.4382 34.1218C17.9909 34.334 18.4586 34.7795 18.8412 35.4583L28.2156 51.7507H24.5169L33.8276 35.4583C34.2101 34.7795 34.6779 34.334 35.2305 34.1218C35.7832 33.8673 36.676 33.74 37.9089 33.74H40.2684C41.629 33.74 42.628 33.846 43.2657 34.0582C43.946 34.2703 44.2861 34.631 44.2861 35.1401C44.2861 35.3098 44.2436 35.522 44.1585 35.7765C44.0735 35.9887 43.9247 36.2644 43.7122 36.6039L31.0853 57.2241V76.5075C31.0853 77.186 30.7878 77.6952 30.1925 78.0349C29.5973 78.3742 28.6196 78.5441 27.259 78.5441H25.0908Z" fill="#656565"/>
<path d="M65.3511 78.9259C58.8038 78.9259 53.7448 76.9741 50.1735 73.0709C46.6449 69.1251 44.8805 63.482 44.8805 56.142C44.8805 48.8019 46.6449 43.1802 50.1735 39.2768C53.7448 35.331 58.8038 33.3582 65.3511 33.3582C71.9409 33.3582 76.9789 35.331 80.465 39.2768C83.9937 43.1802 85.7581 48.8019 85.7581 56.142C85.7581 63.482 83.9937 69.1251 80.465 73.0709C76.9789 76.9741 71.9409 78.9259 65.3511 78.9259ZM65.3511 70.5888C68.7525 70.5888 71.3246 69.3797 73.0674 66.9613C74.8107 64.5003 75.6821 60.8938 75.6821 56.142C75.6821 51.3476 74.8107 47.7412 73.0674 45.3229C71.3246 42.9044 68.7525 41.6952 65.3511 41.6952C61.9502 41.6952 59.3565 42.9044 57.5711 45.3229C55.828 47.7412 54.9564 51.3476 54.9564 56.142C54.9564 60.8938 55.828 64.5003 57.5711 66.9613C59.3565 69.3797 61.9502 70.5888 65.3511 70.5888Z" fill="#656565"/>
<path d="M142.027 78.544C140.71 78.544 139.732 78.3741 139.094 78.0349C138.499 77.653 138.201 77.1228 138.201 76.4438V36.413C138.201 34.7159 138.988 33.8673 140.56 33.8673H153.187C158.799 33.8673 162.881 34.9705 165.432 37.1767C168.025 39.3829 169.322 42.5014 169.322 46.5321C169.322 48.3564 169.046 49.9687 168.492 51.3689C167.982 52.769 167.196 53.957 166.133 54.9328C165.112 55.9087 163.817 56.6723 162.243 57.224V57.4786C162.966 57.7331 163.689 58.2844 164.411 59.1332C165.177 59.9816 165.772 60.9578 166.197 62.0608L171.362 74.9164C171.575 75.3829 171.724 75.8074 171.809 76.1892C171.936 76.5711 172 76.8893 172 77.1439C172 77.6956 171.724 78.0774 171.171 78.2894C170.618 78.4593 169.662 78.544 168.301 78.544H165.687C164.752 78.544 163.944 78.4378 163.263 78.2258C162.626 77.9712 162.137 77.441 161.797 76.6347L157.014 65.0519C156.674 64.1609 156.248 63.4398 155.738 62.8881C155.271 62.3364 154.634 61.9335 153.825 61.6789C153.018 61.3818 151.912 61.2334 150.509 61.2334H148.086V76.4438C148.086 77.1228 147.788 77.653 147.193 78.0349C146.598 78.3741 145.62 78.544 144.259 78.544H142.027ZM148.086 53.5327H153.698C155.654 53.5327 157.057 53.0872 157.906 52.1962C158.799 51.3052 159.246 49.8627 159.246 47.8686C159.246 45.8744 158.799 44.4319 157.906 43.5409C157.057 42.6499 155.654 42.2044 153.698 42.2044H148.086V53.5327Z" fill="#656565"/>
<path d="M102.429 50.9168C103.851 50.9168 105.005 48.3913 105.005 45.276C105.005 42.1607 103.851 39.6353 102.429 39.6353C101.007 39.6353 99.8538 42.1607 99.8538 45.276C99.8538 48.3913 101.007 50.9168 102.429 50.9168Z" fill="#DA4848"/>
<path fill-rule="evenodd" clip-rule="evenodd" d="M126.775 56.3289C126.624 66.8878 119.354 74.3378 111.629 74.3378C103.905 74.3378 96.6339 66.8878 96.4831 56.3289H92.4977C92.6504 68.5018 101.157 78.3154 111.629 78.3154C122.101 78.3154 130.607 68.5018 130.761 56.3289H126.775Z" fill="#DA4848"/>
<path d="M115.214 44.0216L119.377 48.5797L128.742 38.324" stroke="#DA4848" stroke-width="4" stroke-linecap="round" stroke-linejoin="round"/>
</g>
<defs>
<clipPath id="clip0_2017_224">
<rect width="164" height="94.9731" fill="white" transform="translate(8 7.51343)"/>
</clipPath>
</defs>
</svg>
